<svg width="31" height="30" viewBox="0 0 31 30" fill="none"  xmlns="http://www.w3.org/2000/svg">
<g id="Github" clip-path="url(#clip0_328_220)">
<path id="Vector" d="M14.0215 27.5059C14.0215 27.3592 13.9892 27.2144 13.9269 27.0816C13.8647 26.9488 13.774 26.8313 13.6613 26.7375C13.5486 26.6436 13.4166 26.5757 13.2748 26.5386C13.1329 26.5014 12.9846 26.4959 12.8403 26.5225C11.5313 26.7627 9.87843 26.7988 9.43897 25.5645C9.05578 24.6085 8.42105 23.774 7.60206 23.1495C7.54363 23.1177 7.48794 23.0811 7.43556 23.0401C7.36389 22.851 7.23658 22.6881 7.07043 22.5729C6.90428 22.4576 6.7071 22.3955 6.50489 22.3946H6.50001C6.23561 22.3945 5.98194 22.4991 5.79453 22.6856C5.60711 22.8721 5.50121 23.1253 5.50001 23.3897C5.4961 24.2051 6.31101 24.7276 6.64161 24.9043C7.03146 25.296 7.34477 25.7571 7.56544 26.2637C7.9297 27.2872 8.98829 28.8399 12.0313 28.6397C12.0323 28.6749 12.0332 28.7081 12.0337 28.7383L12.0381 29.0059C12.0381 29.2711 12.1435 29.5255 12.331 29.713C12.5185 29.9006 12.7729 30.0059 13.0381 30.0059C13.3033 30.0059 13.5577 29.9006 13.7452 29.713C13.9327 29.5255 14.0381 29.2711 14.0381 29.0059L14.0332 28.6876C14.0283 28.4981 14.0215 28.2236 14.0215 27.5059ZM24.6885 12.3799C24.7202 12.2549 24.7515 12.1162 24.7788 11.9599C24.9406 10.8455 24.7996 9.70814 24.3706 8.66695C24.3165 8.53121 24.2333 8.40896 24.127 8.30875C24.0206 8.20855 23.8936 8.13282 23.7549 8.08688C23.3989 7.96676 22.0845 7.73043 19.5708 9.33688C17.4814 8.84517 15.3063 8.84517 13.2168 9.33688C10.7134 7.75396 9.40577 7.96876 9.05323 8.08204C8.9111 8.12612 8.78063 8.20144 8.67138 8.3025C8.56214 8.40355 8.47689 8.52776 8.42188 8.66604C7.98419 9.72722 7.84472 10.8878 8.01856 12.0225C8.04298 12.1504 8.06934 12.2686 8.09669 12.377C7.26826 13.4804 6.827 14.8263 6.84132 16.2061C6.83862 16.5139 6.85281 16.8217 6.8838 17.1279C7.2178 21.7305 10.2178 23.1123 12.3081 23.5869C12.2647 23.7119 12.2251 23.8457 12.19 23.9873C12.1273 24.2446 12.1692 24.5163 12.3066 24.7427C12.4439 24.9691 12.6654 25.1318 12.9225 25.1952C13.1797 25.2585 13.4514 25.2173 13.6782 25.0806C13.905 24.9439 14.0683 24.7228 14.1323 24.4658C14.196 24.1326 14.3591 23.8266 14.6001 23.5879C14.7459 23.4603 14.8514 23.2931 14.9039 23.1066C14.9563 22.9201 14.9535 22.7224 14.8956 22.5375C14.8378 22.3526 14.7275 22.1885 14.5781 22.0652C14.4287 21.9419 14.2467 21.8646 14.0542 21.8428C10.6001 21.4483 9.10059 20.041 8.87501 16.9444C8.85003 16.6991 8.83878 16.4526 8.84132 16.2061C8.82528 15.2227 9.15015 14.2642 9.76075 13.4932C9.82211 13.4128 9.88746 13.3356 9.95655 13.2617C10.079 13.1247 10.1613 12.9567 10.1945 12.7759C10.2276 12.5952 10.2104 12.4089 10.1446 12.2373C10.0771 12.0569 10.0251 11.871 9.98928 11.6817C9.90782 11.1434 9.93454 10.5942 10.0679 10.0664C10.937 10.3119 11.755 10.7115 12.4829 11.2461C12.6033 11.3263 12.7395 11.3796 12.8823 11.4025C13.0251 11.4255 13.1711 11.4174 13.3105 11.3789C15.3316 10.8304 17.4624 10.8308 19.4834 11.3799C19.6235 11.4184 19.7704 11.426 19.9138 11.4022C20.0571 11.3784 20.1937 11.3238 20.3139 11.2422C21.0384 10.7054 21.853 10.3022 22.7192 10.0518C22.852 10.567 22.8817 11.1033 22.8066 11.6299C22.7704 11.8375 22.7138 12.0409 22.6377 12.2373C22.5719 12.4089 22.5546 12.5952 22.5878 12.776C22.6209 12.9567 22.7032 13.1248 22.8257 13.2618C22.9028 13.3487 22.98 13.4424 23.0493 13.5303C23.6556 14.2882 23.975 15.2358 23.9512 16.2061C23.953 16.4657 23.9404 16.7252 23.9136 16.9834C23.6934 20.0391 22.188 21.4473 18.7178 21.8428C18.5252 21.8647 18.3432 21.9421 18.1938 22.0656C18.0445 22.189 17.9342 22.3532 17.8764 22.5382C17.8186 22.7232 17.8159 22.921 17.8684 23.1075C17.9209 23.294 18.0265 23.4613 18.1724 23.5889C18.421 23.8339 18.5845 24.1522 18.6387 24.4971C18.7063 24.7648 18.7373 25.0404 18.731 25.3164V27.6504C18.7212 28.2979 18.7212 28.7832 18.7212 29.0059C18.7212 29.2711 18.8265 29.5254 19.0141 29.713C19.2016 29.9005 19.456 30.0059 19.7212 30.0059C19.9864 30.0059 20.2408 29.9005 20.4283 29.713C20.6158 29.5254 20.7212 29.2711 20.7212 29.0059C20.7212 28.7891 20.7212 28.3135 20.731 27.666V25.3164C20.739 24.8742 20.6869 24.433 20.5762 24.0049C20.5445 23.8643 20.5057 23.7255 20.46 23.5889C21.9812 23.3362 23.3634 22.5518 24.3606 21.3755C25.3577 20.1992 25.9051 18.7072 25.9053 17.1651C25.9382 16.8465 25.9535 16.5263 25.9512 16.2061C25.9734 14.8248 25.5284 13.4766 24.6885 12.3799L24.6885 12.3799Z" fill="#3333ff"/>
</g>
<defs>
<clipPath id="clip0_328_220">
<rect width="30" height="30" fill="white" transform="translate(0.5)"/>
</clipPath>
</defs>
</svg>
