<svg width="31" height="30" viewBox="0 0 31 30" fill="none" xmlns="http://www.w3.org/2000/svg">
<g id="IG">
<path id="Vector" d="M20.84 13.46C20.6027 13.46 20.3707 13.5304 20.1733 13.6622C19.976 13.7941 19.8222 13.9815 19.7313 14.2008C19.6405 14.4201 19.6168 14.6613 19.6631 14.8941C19.7094 15.1269 19.8236 15.3407 19.9915 15.5085C20.1593 15.6764 20.3731 15.7906 20.6059 15.8369C20.8387 15.8832 21.0799 15.8595 21.2992 15.7687C21.5185 15.6778 21.7059 15.524 21.8378 15.3267C21.9696 15.1293 22.04 14.8973 22.04 14.66C22.04 14.3417 21.9136 14.0365 21.6885 13.8115C21.4635 13.5864 21.1583 13.46 20.84 13.46ZM25.44 15.88C25.4206 15.0503 25.2652 14.2294 24.98 13.45C24.7257 12.7831 24.33 12.1793 23.82 11.68C23.3248 11.1674 22.7196 10.7742 22.05 10.53C21.2727 10.2362 20.4508 10.0772 19.62 10.06C18.56 10 18.22 10 15.5 10C12.78 10 12.44 10 11.38 10.06C10.5492 10.0772 9.72734 10.2362 8.95 10.53C8.28168 10.7766 7.67693 11.1696 7.18 11.68C6.66743 12.1752 6.27418 12.7804 6.03 13.45C5.73616 14.2273 5.57721 15.0492 5.56 15.88C5.5 16.94 5.5 17.28 5.5 20C5.5 22.72 5.5 23.06 5.56 24.12C5.57721 24.9508 5.73616 25.7727 6.03 26.55C6.27418 27.2196 6.66743 27.8248 7.18 28.32C7.67693 28.8304 8.28168 29.2234 8.95 29.47C9.72734 29.7638 10.5492 29.9228 11.38 29.94C12.44 30 12.78 30 15.5 30C18.22 30 18.56 30 19.62 29.94C20.4508 29.9228 21.2727 29.7638 22.05 29.47C22.7196 29.2258 23.3248 28.8326 23.82 28.32C24.3322 27.8226 24.7283 27.2182 24.98 26.55C25.2652 25.7706 25.4206 24.9497 25.44 24.12C25.44 23.06 25.5 22.72 25.5 20C25.5 17.28 25.5 16.94 25.44 15.88ZM23.64 24C23.6327 24.6348 23.5178 25.2637 23.3 25.86C23.1403 26.2952 22.8839 26.6884 22.55 27.01C22.2256 27.3405 21.8332 27.5964 21.4 27.76C20.8037 27.9778 20.1748 28.0927 19.54 28.1C18.54 28.15 18.17 28.16 15.54 28.16C12.91 28.16 12.54 28.16 11.54 28.1C10.8809 28.1123 10.2246 28.0109 9.6 27.8C9.18578 27.6281 8.81136 27.3728 8.5 27.05C8.16809 26.7287 7.91484 26.3352 7.76 25.9C7.51586 25.2952 7.38044 24.6519 7.36 24C7.36 23 7.3 22.63 7.3 20C7.3 17.37 7.3 17 7.36 16C7.36448 15.3511 7.48295 14.7079 7.71 14.1C7.88605 13.6779 8.15627 13.3017 8.5 13C8.80381 12.6562 9.17929 12.3831 9.6 12.2C10.2096 11.98 10.852 11.8651 11.5 11.86C12.5 11.86 12.87 11.8 15.5 11.8C18.13 11.8 18.5 11.8 19.5 11.86C20.1348 11.8673 20.7637 11.9822 21.36 12.2C21.8144 12.3687 22.2223 12.6428 22.55 13C22.8777 13.3072 23.1338 13.6827 23.3 14.1C23.5223 14.7089 23.6373 15.3518 23.64 16C23.69 17 23.7 17.37 23.7 20C23.7 22.63 23.69 23 23.64 24ZM15.5 14.87C14.4858 14.872 13.495 15.1745 12.6527 15.7394C11.8103 16.3043 11.1544 17.1062 10.7676 18.0438C10.3809 18.9813 10.2807 20.0125 10.4798 21.0069C10.6789 22.0014 11.1682 22.9145 11.8861 23.631C12.6039 24.3474 13.518 24.835 14.5129 25.0321C15.5077 25.2293 16.5387 25.1271 17.4755 24.7385C18.4123 24.35 19.2129 23.6924 19.7761 22.849C20.3394 22.0056 20.64 21.0142 20.64 20C20.6413 19.3251 20.5092 18.6566 20.2512 18.033C19.9933 17.4093 19.6146 16.8428 19.1369 16.3661C18.6592 15.8893 18.0919 15.5117 17.4678 15.2549C16.8436 14.9982 16.1749 14.8674 15.5 14.87ZM15.5 23.33C14.8414 23.33 14.1976 23.1347 13.65 22.7688C13.1023 22.4029 12.6755 21.8828 12.4235 21.2743C12.1714 20.6659 12.1055 19.9963 12.234 19.3503C12.3625 18.7044 12.6796 18.111 13.1453 17.6453C13.611 17.1796 14.2044 16.8625 14.8503 16.734C15.4963 16.6055 16.1659 16.6714 16.7743 16.9235C17.3828 17.1755 17.9029 17.6023 18.2688 18.15C18.6347 18.6976 18.83 19.3414 18.83 20C18.83 20.4373 18.7439 20.8703 18.5765 21.2743C18.4092 21.6784 18.1639 22.0454 17.8547 22.3547C17.5454 22.6639 17.1784 22.9092 16.7743 23.0765C16.3703 23.2439 15.9373 23.33 15.5 23.33Z" fill="#5671A6"/>
</g>
</svg>
