<svg width="31" height="30" viewBox="0 0 31 30" fill="none" xmlns="http://www.w3.org/2000/svg">
<g id="TW" clip-path="url(#clip0_328_214)">
<path id="Vector" d="M25.5 15.9506C24.7483 16.2767 23.9534 16.4923 23.14 16.5906C23.9982 16.0779 24.6413 15.2714 24.95 14.3206C24.1436 14.8007 23.2608 15.1389 22.34 15.3206C21.7245 14.6532 20.905 14.2089 20.0098 14.0575C19.1147 13.906 18.1945 14.056 17.3938 14.4838C16.593 14.9116 15.9569 15.5931 15.5852 16.4214C15.2135 17.2497 15.1273 18.178 15.34 19.0606C13.7094 18.9781 12.1144 18.5536 10.6587 17.8145C9.20287 17.0754 7.91885 16.0383 6.89 14.7706C6.52914 15.4008 6.33952 16.1144 6.34 16.8406C6.33872 17.515 6.50422 18.1792 6.82176 18.7742C7.13929 19.3691 7.59902 19.8763 8.16 20.2506C7.50798 20.2329 6.86989 20.0579 6.3 19.7406V19.7906C6.30489 20.7355 6.63599 21.6497 7.23731 22.3786C7.83864 23.1074 8.67326 23.6062 9.6 23.7906C9.24326 23.8992 8.87287 23.9564 8.5 23.9606C8.24189 23.9576 7.98442 23.9342 7.73 23.8906C7.99391 24.7034 8.50462 25.4137 9.19107 25.9228C9.87753 26.4318 10.7056 26.7142 11.56 26.7306C10.1172 27.8659 8.33588 28.4855 6.5 28.4906C6.16574 28.4917 5.83174 28.4717 5.5 28.4306C7.37443 29.6409 9.55881 30.2833 11.79 30.2806C13.3297 30.2966 14.8571 30.0056 16.2831 29.4247C17.7091 28.8437 19.005 27.9845 20.0952 26.8971C21.1854 25.8097 22.048 24.516 22.6326 23.0915C23.2172 21.667 23.512 20.1403 23.5 18.6006C23.5 18.4306 23.5 18.2506 23.5 18.0706C24.2847 17.4854 24.9615 16.768 25.5 15.9506Z" fill="#5671A6"/>
</g>
<defs>
<clipPath id="clip0_328_214">
<rect width="30" height="30" fill="white" transform="translate(0.5)"/>
</clipPath>
</defs>
</svg>
